<?xml version="1.0" standalone="no"?>
<!DOCTYPE svg PUBLIC "-//W3C//DTD SVG 20010904//EN"
 "http://www.w3.org/TR/2001/REC-SVG-20010904/DTD/svg10.dtd">
<svg version="1.0" xmlns="http://www.w3.org/2000/svg"
 width="320.000000pt" height="128.000000pt" viewBox="0 0 320.000000 128.000000"
 preserveAspectRatio="xMidYMid meet">

<g transform="translate(0.000000,128.000000) scale(0.100000,-0.100000)"
fill="#000000" stroke="none">
<path d="M37 846 c-15 -24 -27 -46 -27 -50 0 -3 73 -6 163 -6 175 0 187 -3
187 -50 0 -47 -12 -50 -192 -50 l-168 0 0 -155 0 -155 50 0 49 0 3 103 3 102
132 5 c113 4 136 8 159 26 50 37 68 70 68 124 l0 50 201 0 c215 0 225 -2 225
-50 0 -47 -11 -50 -202 -50 l-178 0 0 -155 0 -155 50 0 50 0 0 105 0 105 33 0
c28 0 42 -12 122 -105 l90 -104 69 -1 69 0 -19 23 c-10 12 -54 58 -97 103
l-79 81 52 6 c29 4 63 13 76 22 31 20 31 20 39 -22 14 -76 67 -147 140 -186
39 -21 50 -22 407 -22 l366 0 27 25 c39 36 55 73 55 125 0 52 -16 89 -55 125
-25 24 -34 25 -156 28 -127 4 -129 4 -135 28 -3 13 -3 35 0 49 l6 25 215 0
215 0 2 -202 3 -203 70 -3 c38 -2 79 -1 90 2 14 4 48 56 110 170 50 91 93 166
97 166 7 0 58 -92 58 -105 0 -3 -11 -5 -25 -5 -19 0 -29 -10 -45 -40 -11 -21
-20 -44 -20 -50 0 -6 30 -10 75 -10 l75 0 31 -55 c37 -66 51 -75 122 -75 77 0
87 14 87 123 l0 87 38 0 c34 0 46 -9 142 -105 l105 -105 62 0 c35 0 63 3 63 6
0 4 -41 49 -91 102 l-91 95 43 21 c47 24 89 88 89 135 -1 44 -35 107 -72 129
-32 20 -49 22 -180 22 l-146 0 -31 -47 -30 -48 164 -3 c163 -2 165 -3 181 -27
15 -23 15 -27 0 -50 -16 -25 -17 -25 -181 -25 l-165 0 0 -102 c0 -62 -4 -98
-9 -93 -5 6 -51 89 -101 185 -51 96 -99 183 -108 193 -23 27 -67 22 -90 -11
-10 -15 -54 -92 -97 -172 -128 -236 -115 -230 -115 -52 l0 152 45 0 c41 0 46
3 75 44 16 25 30 47 30 50 0 3 -161 6 -359 6 -348 0 -359 -1 -385 -21 -78 -62
-78 -196 0 -258 24 -19 40 -21 141 -21 63 0 123 -5 134 -10 22 -12 27 -78 7
-98 -9 -9 -69 -12 -210 -12 l-197 0 27 52 c69 133 8 295 -133 354 -19 8 -66
14 -108 14 -86 0 -161 -31 -204 -85 l-26 -33 -20 39 c-10 21 -34 48 -52 59
-31 19 -48 20 -446 20 l-414 0 -28 -44z m1283 -78 c53 -36 72 -70 73 -125 1
-65 -29 -115 -87 -142 -169 -82 -327 119 -193 246 40 38 49 41 118 42 43 1 64
-4 89 -21z"/>
</g>
</svg>
