<?xml version="1.0" standalone="no"?>
<!DOCTYPE svg PUBLIC "-//W3C//DTD SVG 20010904//EN"
 "http://www.w3.org/TR/2001/REC-SVG-20010904/DTD/svg10.dtd">
<svg version="1.0" xmlns="http://www.w3.org/2000/svg"
 width="356.000000pt" height="73.000000pt" viewBox="0 0 356.000000 73.000000"
 preserveAspectRatio="xMidYMid meet">

<g transform="translate(0.000000,73.000000) scale(0.100000,-0.100000)"
fill="#000000" stroke="none">
<path d="M207 623 c-4 -3 -7 -12 -7 -20 0 -11 68 -13 370 -13 l370 0 -5 -22
c-3 -13 -23 -108 -45 -213 -22 -104 -42 -200 -45 -212 l-5 -23 -373 -2 c-345
-3 -372 -4 -375 -20 -3 -17 31 -18 602 -18 333 0 606 2 606 4 0 2 25 122 55
266 30 144 55 266 55 271 0 10 -1193 13 -1203 2z m1103 -90 c-1 -5 -18 -87
-39 -183 l-38 -175 -101 -3 c-78 -2 -102 0 -102 10 0 7 11 66 25 131 14 64 25
121 25 126 0 6 -19 11 -42 13 -45 3 -46 4 -33 66 5 22 8 22 155 22 83 0 150
-3 150 -7z"/>
<path d="M1493 560 c-35 -14 -49 -47 -82 -194 -38 -171 -39 -190 -6 -212 32
-21 100 -14 128 14 17 18 57 151 57 195 0 23 -75 25 -84 1 -10 -26 -7 -34 14
-34 17 0 19 -5 13 -32 -16 -85 -26 -103 -62 -106 -18 -2 -37 0 -41 5 -10 9 54
301 68 315 5 5 25 8 43 6 33 -3 34 -4 31 -40 -3 -32 -1 -38 16 -38 23 0 32 18
32 65 0 55 -61 81 -127 55z"/>
<path d="M1713 560 c-12 -5 -28 -19 -37 -32 -15 -24 -76 -290 -76 -333 0 -65
124 -75 164 -13 15 24 76 289 76 333 0 45 -68 69 -127 45z m81 -48 c5 -9 -49
-265 -64 -299 -7 -18 -18 -23 -44 -23 -19 0 -37 3 -39 8 -6 8 49 267 63 300 7
17 18 22 44 22 19 0 37 -4 40 -8z"/>
<path d="M1971 553 c-17 -34 -161 -392 -161 -402 0 -6 9 -11 19 -11 13 0 24
13 35 40 15 39 18 40 62 40 l46 0 -4 -37 c-2 -32 0 -38 18 -41 20 -3 21 3 27
125 4 70 7 167 7 216 0 80 -2 87 -20 87 -10 0 -23 -8 -29 -17z m-1 -203 l0
-80 -34 0 -34 0 31 80 c18 44 33 80 35 80 1 0 2 -36 2 -80z"/>
<path d="M2140 567 c0 -1 -20 -96 -45 -210 -25 -115 -45 -211 -45 -213 0 -3
35 -4 78 -2 71 3 77 5 80 25 3 21 0 23 -47 23 -38 0 -51 4 -51 14 0 8 16 87
35 175 41 187 41 191 15 191 -11 0 -20 -1 -20 -3z"/>
<path d="M2336 561 c-6 -9 -81 -348 -88 -391 -2 -19 2 -26 18 -28 18 -3 23 8
44 100 12 57 24 99 26 93 2 -5 12 -50 22 -100 16 -79 21 -90 40 -93 12 -2 22
-2 22 0 0 2 -9 49 -20 106 -23 116 -27 101 57 230 29 45 53 85 53 88 0 3 -10
4 -22 2 -16 -2 -40 -31 -83 -100 -33 -53 -61 -95 -63 -94 -1 2 6 45 18 97 11
51 20 94 20 96 0 7 -39 2 -44 -6z"/>
<path d="M2511 378 c-24 -106 -45 -203 -48 -216 -5 -23 -4 -23 73 -20 73 3 79
5 82 25 3 21 0 23 -49 23 l-51 0 6 33 c4 17 9 49 13 70 5 36 6 37 49 37 24 0
44 4 44 9 0 5 3 16 6 25 5 13 -2 16 -35 16 -46 0 -47 2 -28 85 l12 50 55 5
c48 4 55 8 58 28 3 21 0 22 -71 22 l-74 0 -42 -192z"/>
<path d="M2745 558 c-9 -24 -85 -382 -85 -400 0 -16 10 -18 74 -18 65 0 74 2
79 19 7 27 0 31 -55 31 l-50 0 7 32 c21 106 23 108 64 108 26 0 41 5 45 16 11
29 6 34 -35 34 -34 0 -40 3 -36 18 3 9 11 41 17 70 l12 52 54 0 c30 0 54 4 54
9 0 5 3 16 6 25 5 14 -5 16 -70 16 -52 0 -78 -4 -81 -12z"/>
<path d="M2936 553 c-10 -32 -86 -386 -86 -400 0 -7 9 -13 20 -13 14 0 22 11
29 37 6 21 11 43 11 48 0 6 5 27 11 48 10 36 11 37 55 37 66 0 96 33 118 131
24 111 11 129 -93 129 -48 0 -61 -3 -65 -17z m116 -76 c-2 -21 -8 -55 -15 -75
-11 -34 -15 -37 -55 -40 -38 -3 -43 -1 -38 15 2 10 10 46 17 81 l12 63 41 -3
c41 -3 41 -3 38 -41z"/>
<path d="M3156 553 c-7 -26 -86 -394 -86 -405 0 -4 33 -8 74 -8 58 0 75 3 80
16 11 29 6 33 -47 36 l-53 3 14 67 15 67 41 3 c33 2 42 7 44 25 3 19 -2 22
-35 25 l-39 3 14 67 15 67 56 3 c49 3 56 6 59 26 3 21 0 22 -72 22 -62 0 -76
-3 -80 -17z"/>
<path d="M3350 566 c0 -3 -20 -98 -45 -213 -25 -114 -45 -209 -45 -211 0 -2
10 -2 22 0 20 3 25 14 42 86 17 75 20 82 42 82 23 0 24 -3 25 -70 2 -97 1 -95
27 -98 21 -3 22 -1 22 85 0 80 3 90 24 111 22 20 56 131 56 183 0 31 -39 49
-107 49 -35 0 -63 -2 -63 -4z m117 -88 c-4 -24 -11 -60 -17 -80 -10 -36 -13
-38 -54 -38 l-44 0 15 68 c8 37 16 73 18 80 3 7 22 12 46 12 l42 0 -6 -42z"/>
<path d="M237 372 c-20 -92 -37 -176 -37 -185 0 -16 11 -17 103 -15 l102 3 20
98 c10 53 22 97 25 97 4 0 30 -45 59 -100 l52 -100 104 0 c90 0 104 2 109 18
2 9 19 85 36 167 17 83 34 158 36 168 5 15 -4 17 -100 17 -101 0 -106 -1 -111
-22 -3 -13 -14 -61 -23 -107 l-18 -85 -55 105 -56 104 -105 3 -105 3 -36 -169z"/>
</g>
</svg>
