<?xml version="1.0" standalone="no"?>
<!DOCTYPE svg PUBLIC "-//W3C//DTD SVG 20010904//EN"
 "http://www.w3.org/TR/2001/REC-SVG-20010904/DTD/svg10.dtd">
<svg version="1.0" xmlns="http://www.w3.org/2000/svg"
 width="120.000000pt" height="120.000000pt" viewBox="0 0 120.000000 120.000000"
 preserveAspectRatio="xMidYMid meet">

<g transform="translate(0.000000,120.000000) scale(0.100000,-0.100000)"
fill="#000000" stroke="none">
<path d="M780 684 c-478 -123 -505 -128 -555 -112 -30 10 -45 22 -58 50 -17
35 -17 38 2 95 l19 58 -49 -54 c-67 -72 -99 -137 -99 -201 0 -44 4 -56 30 -82
30 -29 32 -30 113 -26 79 3 96 9 527 182 245 98 447 180 449 182 8 7 -9 3
-379 -92z"/>
</g>
</svg>
