<?xml version="1.0" encoding="UTF-8" standalone="no"?>
<svg
   viewBox="0 0 127.82544 37.400002"
   version="1.1"
   id="svg8"
   sodipodi:docname="Reusch logo.svg"
   width="127.82545"
   height="37.400002"
   inkscape:version="1.1.1 (3bf5ae0d25, 2021-09-20)"
   xmlns:inkscape="http://www.inkscape.org/namespaces/inkscape"
   xmlns:sodipodi="http://sodipodi.sourceforge.net/DTD/sodipodi-0.dtd"
   xmlns="http://www.w3.org/2000/svg"
   xmlns:svg="http://www.w3.org/2000/svg">
  <defs
     id="defs12" />
  <sodipodi:namedview
     id="namedview10"
     pagecolor="#ffffff"
     bordercolor="#999999"
     borderopacity="1"
     inkscape:pageshadow="0"
     inkscape:pageopacity="0"
     inkscape:pagecheckerboard="0"
     showgrid="false"
     fit-margin-top="5"
     fit-margin-right="5"
     fit-margin-bottom="5"
     fit-margin-left="5"
     inkscape:zoom="4.6753245"
     inkscape:cx="71.545836"
     inkscape:cy="-5.8819447"
     inkscape:window-width="1920"
     inkscape:window-height="1001"
     inkscape:window-x="-9"
     inkscape:window-y="-9"
     inkscape:window-maximized="1"
     inkscape:current-layer="svg8" />
  <path
     d="M 17,5 C 15,5 13.4,6.2 12.8,7.8 12.7,8 5,32.4 5,32.4 h 22.2 c 1.9,0 3.5,-1.2 4.2,-2.9 C 31.5,29.4 39.1,5 39.1,5 Z"
     id="path2" />
  <path
     d="m 49.2,19 c 0.6,-1.3 1.3,-2.3 2.1,-3 h -7.2 c -2.1,0.5 -3.4,2 -4.4,5.2 l -2,6.5 h 4 l 2,-6.3 C 44.2,19.7 45.2,19 46.9,19 H 49 Z m 10.6,1.1 h -5.9 c 0.5,-1.4 0.9,-1.7 3.5,-1.7 2.3,0 2.9,0.3 2.4,1.7 m 3.7,0.7 C 64.4,18 64,16.6 62.4,16 h -8.8 c -1.7,0.6 -3.1,2.1 -4,5.2 l -0.4,1.2 c -1.1,3.3 -0.3,4.8 1,5.3 H 59 c 1.5,-0.5 2.7,-1.4 3.3,-3.3 l 0.2,-0.5 h -3.8 c -0.2,0.7 -0.5,1.4 -2.7,1.4 h -1.2 c -1.7,0 -2.4,-0.4 -2,-1.6 l 0.4,-1.1 H 63 Z M 75.4,27.7 79,16 h -4 l -2.7,8.7 h -3.4 c -1.1,0 -1.3,-0.3 -0.9,-1.8 L 70.2,16 h -4 L 64,22.7 c -1.1,3.4 -0.4,4.6 1.2,4.9 H 75.4 Z M 93.1,19.3 C 93.6,17.5 93.6,16.5 92.2,16 H 82 c -1.3,0.4 -2.2,1.1 -2.7,2.9 -1,3.3 -0.2,4.2 3.5,4.3 h 3.8 c 1.4,0 1.6,0.3 1.3,1.2 -0.3,0.9 -0.8,0.9 -2.7,0.9 h -1.4 c -2.5,0 -2.4,-0.5 -2.1,-1.1 h -4.2 c -0.6,2 -0.4,3 0.9,3.6 H 89 c 1.7,-0.5 2.3,-1.4 3,-3.4 0.7,-2.2 0.9,-4 -3.9,-4 h -2.8 c -2.1,0 -2.2,-0.3 -2,-0.9 0.3,-0.8 0.7,-0.9 3.1,-0.9 2.4,0 2.8,0.1 2.7,0.8 h 4 z m 15.6,0.3 c 0.6,-1.9 0.1,-3 -1.1,-3.6 H 98 c -1.7,0.6 -3.1,2.1 -4,5.2 l -0.4,1.2 c -1.1,3.3 -0.3,4.8 1,5.3 h 9.2 c 1.5,-0.5 2.9,-1.7 3.6,-3.8 l 0.3,-1.1 h -3.9 l -0.2,0.5 c -0.4,1.1 -1.5,1.4 -2.6,1.4 h -2.1 c -1.3,0 -2,-0.5 -1.5,-2 l 0.6,-2 c 0.4,-1.3 1.4,-1.9 3.1,-1.9 h 1.6 c 1.8,0 2.2,0.5 1.7,1.8 h 3.9 z M 121.5,16 h -6.6 l 1.8,-5.5 h -4 l -5.5,17.2 h 4 l 2.8,-8.8 h 2.2 c 2.4,0 2.6,0.4 2.1,1.9 -0.5,1.5 -2.2,6.9 -2.2,6.9 h 3.9 c 0,0 1.6,-5 2.5,-8.1 0.5,-1.3 0.6,-2.9 -1,-3.6"
     id="path4" />
  <path
     d="m 20.9,15.9 h -5 l -3.7,11.8 h 1.6 c 2,0 3.7,-1.3 4.3,-3.2 z M 32.1,9.8 H 21.2 c -1.9,0 -3.7,1.2 -4.3,3.1 l -0.5,1.6 h 12.4 c 0.3,-0.7 1.5,-3.2 3.3,-4.7"
     fill="#ffffff"
     id="path6" />
</svg>
