<?xml version="1.0" standalone="no"?>
<!DOCTYPE svg PUBLIC "-//W3C//DTD SVG 20010904//EN"
 "http://www.w3.org/TR/2001/REC-SVG-20010904/DTD/svg10.dtd">
<svg version="1.0" xmlns="http://www.w3.org/2000/svg"
 width="120.000000pt" height="120.000000pt" viewBox="0 0 120.000000 120.000000"
 preserveAspectRatio="xMidYMid meet">

<g transform="translate(0.000000,120.000000) scale(0.100000,-0.100000)"
fill="#000000" stroke="none">
<path d="M560 1061 c-34 -18 -61 -54 -75 -98 l-6 -23 194 0 c191 0 194 0 204
23 6 12 27 43 47 70 l36 47 -183 0 c-159 0 -187 -2 -217 -19z"/>
<path d="M407 711 c-31 -98 -57 -182 -57 -186 0 -12 86 3 119 19 41 22 54 47
104 204 l45 142 -77 0 -77 0 -57 -179z"/>
<path d="M1021 255 c-17 -57 -34 -111 -37 -120 -5 -11 1 -15 23 -15 28 0 31 4
48 60 17 58 19 60 52 60 38 0 38 -2 18 -60 -20 -57 -19 -62 12 -58 24 3 29 11
46 67 10 35 16 69 13 77 -4 9 -22 14 -57 14 -55 0 -56 3 -33 64 5 12 0 16 -23
16 -29 0 -30 -3 -62 -105z"/>
<path d="M57 262 c-13 -14 -57 -121 -57 -139 0 -1 13 -3 29 -3 26 0 30 5 47
58 17 51 22 57 49 60 31 4 55 18 55 33 0 5 -24 9 -53 9 -39 0 -58 -5 -70 -18z"/>
<path d="M204 272 c-30 -19 -58 -106 -43 -133 8 -16 21 -19 75 -19 69 0 98 9
108 35 5 14 -3 15 -65 9 -59 -6 -71 -4 -67 7 3 10 26 15 76 17 l71 3 7 34 c3
18 3 38 -1 44 -7 12 -144 15 -161 3z m106 -32 c0 -5 -18 -10 -41 -10 -24 0
-38 4 -34 10 3 6 22 10 41 10 19 0 34 -4 34 -10z"/>
<path d="M395 268 c-2 -7 -11 -37 -20 -66 -24 -74 -14 -84 83 -80 l74 3 24 75
c13 41 24 76 24 78 0 1 -13 2 -28 2 -26 0 -30 -5 -47 -60 -16 -54 -21 -60 -45
-60 -15 0 -29 3 -33 6 -3 3 3 30 13 60 l19 54 -30 0 c-16 0 -31 -6 -34 -12z"/>
<path d="M596 258 c-35 -50 -10 -78 68 -78 28 0 46 -5 46 -11 0 -8 -22 -10
-76 -5 -75 7 -75 7 -72 -16 3 -22 8 -23 89 -26 97 -3 110 4 112 60 l2 33 -65
10 c-80 13 -64 30 19 20 47 -5 59 -4 64 8 9 24 -1 27 -89 27 -74 0 -84 -2 -98
-22z"/>
<path d="M817 262 c-20 -22 -42 -104 -34 -125 10 -27 150 -24 177 3 27 27 26
50 -4 50 -13 0 -29 -7 -36 -15 -15 -19 -69 -20 -76 -2 -3 8 0 26 5 40 9 23 16
27 51 27 22 0 40 -4 40 -10 0 -5 14 -10 30 -10 27 0 30 3 30 30 l0 30 -83 0
c-67 0 -87 -3 -100 -18z"/>
</g>
</svg>
